<mxfile host="app.diagrams.net" modified="2024-03-05T08:10:00.668Z" agent="Mozilla/5.0 (Macintosh; Intel Mac OS X 10_15_7) AppleWebKit/605.1.15 (KHTML, like Gecko) Version/17.3 Safari/605.1.15" version="24.0.1" etag="aN38xQjfzGVBF6l2pNxu" type="github">
  <diagram name="第 1 页" id="ar6GxooqLpQySw7bLq2s">
    <mxGraphModel>
      <root>
        <mxCell id="0" />
        <mxCell id="1" parent="0" />
      </root>
    </mxGraphModel>
  </diagram>
</mxfile>
